<?xml version="1.0" encoding="UTF-8"?>
<svg width="76px" height="76px" viewBox="0 0 76 76" version="1.1" xmlns="http://www.w3.org/2000/svg" xmlns:xlink="http://www.w3.org/1999/xlink">
    <title>Group 23</title>
    <defs>
        <path d="M37.370892,0.179943662 C47.6874366,0.179943662 57.0178779,4.35834742 63.7809953,11.1189859 C70.5416714,17.8821408 74.7200751,27.2101033 74.722554,37.5291268 C74.7200751,47.8481315 70.5416714,57.1760901 63.7809953,63.93923 C57.0178779,70.7023737 47.6874366,74.8807808 37.370892,74.8807808 C27.0518685,74.8807808 17.7214272,70.7023737 10.9582723,63.93923 C4.1976338,57.1760901 0.0192300469,47.8481315 0.0192300469,37.5291268 C0.0192300469,27.2125822 4.1976338,17.8821408 10.9582723,11.1189859 C17.7214272,4.35834742 27.0518685,0.179943662 37.370892,0.179943662 Z" id="path-1"></path>
    </defs>
    <g id="Teams" stroke="none" stroke-width="1" fill="none" fill-rule="evenodd">
        <g id="Teams:Year_progress_desktop" transform="translate(-780.000000, -334.000000)">
            <g id="Group-18" transform="translate(744.000000, 298.000000)">
                <g id="Group-23" transform="translate(36.000000, 36.000000)">
                    <g id="Group-31" transform="translate(0.629108, 0.629108)">
                        <mask id="mask-2" fill="white">
                            <use xlink:href="#path-1"></use>
                        </mask>
                        <g id="Clip-30"></g>
                        <polygon id="Fill-29" fill="" mask="url(#mask-2)" points="-2.47087324 187.370892 77.2126948 187.370892 77.2126948 -128.873239 -2.47087324 -128.873239"></polygon>
                    </g>
                    <g id="Group-40" transform="translate(5.136150, 5.136150)" fill="#FFFFFE">
                        <path d="M32.8638498,3.88777465 C48.9524507,3.88777465 61.9981596,16.9309671 61.9981596,33.0220845 C61.9981596,49.1131681 48.9524507,62.158862 32.8638498,62.158862 C16.7727324,62.158862 3.72706103,49.1131681 3.72706103,33.0220845 C3.72706103,16.9309671 16.7727324,3.88777465 32.8638498,3.88777465 Z M32.8638498,65.7994028 C50.9669484,65.7994028 65.6412019,51.1251793 65.6412019,33.0220845 C65.6412019,14.9189484 50.9669484,0.244732394 32.8638498,0.244732394 C14.7607512,0.244732394 0.0864976526,14.9189484 0.0864976526,33.0220845 C0.0864976526,51.1251793 14.7607512,65.7994028 32.8638498,65.7994028 L32.8638498,65.7994028 Z" id="Fill-35"></path>
                        <path d="M32.8638498,11.1688638 C44.9309296,11.1688638 54.7145915,20.9524883 54.7145915,33.0220845 C54.7145915,45.0891493 44.9309296,54.8727962 32.8638498,54.8727962 C20.7942911,54.8727962 11.0106291,45.0891493 11.0106291,33.0220845 C11.0106291,20.9524883 20.7942911,11.1688638 32.8638498,11.1688638 Z M32.8638498,58.5158272 C46.9429484,58.5158272 58.3575962,47.1011568 58.3575962,33.0220845 C58.3575962,18.9429859 46.9429484,7.52830047 32.8638498,7.52830047 C18.7822723,7.52830047 7.37010329,18.9429859 7.37010329,33.0220845 C7.37010329,47.1011568 18.7822723,58.5158272 32.8638498,58.5158272 L32.8638498,58.5158272 Z" id="Fill-37"></path>
                        <path d="M32.8638498,18.4549108 C40.9094085,18.4549108 47.4309859,24.9765258 47.4309859,33.0220845 C47.4309859,41.0676207 40.9094085,47.5892207 32.8638498,47.5892207 C24.8182911,47.5892207 18.2941972,41.0676207 18.2941972,33.0220845 C18.2941972,24.9765258 24.8182911,18.4549108 32.8638498,18.4549108 Z M32.8638498,51.2322516 C42.9214272,51.2322516 51.0740282,43.0796282 51.0740282,33.0220845 C51.0740282,22.9669859 42.9214272,14.8118685 32.8638498,14.8118685 C22.8062723,14.8118685 14.6536714,22.9669859 14.6536714,33.0220845 C14.6536714,43.0796282 22.8062723,51.2322516 32.8638498,51.2322516 L32.8638498,51.2322516 Z" id="Fill-38"></path>
                        <path d="M32.8638498,43.9486761 C38.8973897,43.9486761 43.7879812,39.0580995 43.7879812,33.0220845 C43.7879812,26.9885446 38.8973897,22.0954742 32.8638498,22.0954742 C26.827831,22.0954742 21.9372394,26.9885446 21.9372394,33.0220845 C21.9372394,39.0580995 26.827831,43.9486761 32.8638498,43.9486761" id="Fill-39"></path>
                    </g>
                </g>
            </g>
        </g>
    </g>
</svg>