<?xml version="1.0" encoding="UTF-8"?>
<svg width="67px" height="39px" viewBox="0 0 67 39" version="1.1" xmlns="http://www.w3.org/2000/svg" xmlns:xlink="http://www.w3.org/1999/xlink">
    <title>Group 13</title>
    <g id="Teams" stroke="none" stroke-width="1" fill="none" fill-rule="evenodd">
        <g id="Teams:Year_progress_desktop" transform="translate(-317.000000, -350.000000)" fill="#FFFFFE">
            <g id="Group-22" transform="translate(279.000000, 298.000000)">
                <g id="Group-13" transform="translate(38.666667, 52.512605)">
                    <path d="M32.8571429,0.271868132 C32.8571429,0.271868132 23.839791,7.78820513 23.839791,17.0093773 C23.839791,26.2305495 32.8571429,33.7493407 32.8571429,33.7493407 C32.8571429,33.7493407 41.8719788,26.2305495 41.8719788,17.0093773 C41.8719788,7.78820513 32.8571429,0.271868132 32.8571429,0.271868132" id="Fill-7"></path>
                    <path d="M21.7311135,8.92234432 C17.0780539,7.00864469 12.641551,6.65410256 12.641551,6.65410256 C12.641551,6.65410256 9.88061224,17.9322344 15.4796947,25.3781319 C18.240671,29.1375458 22.6049633,31.2649451 26.3119624,32.3990476 C25.9485061,31.9764835 25.5850122,31.5490842 25.2215184,31.053663 C23.767618,29.0671062 22.5327527,27.0101465 21.6589029,24.9531502 C20.5684588,22.2574725 19.9858922,19.634652 19.9858922,17.0093773 C19.9858922,14.3865568 20.5684588,11.7613187 21.6589029,9.06564103 L21.7311135,8.92234432" id="Fill-9"></path>
                    <path d="M18.5319543,33.0401832 C15.9876098,31.5490842 13.9511053,29.7058242 12.3527837,27.5784249 C10.8241567,25.450989 9.66150204,22.9665934 8.93455184,20.2029304 C3.91799837,21.3370696 0.136272653,23.6053114 0.136272653,23.6053114 C0.136272653,23.6053114 4.71715918,34.2447619 13.7319951,37.0812821 C18.31536,38.4995604 23.1128408,37.6495604 26.7501453,36.4450183 C26.2397894,36.3017216 25.6572229,36.1584615 25.0771347,35.9471795 C22.6771739,35.167619 20.4962482,34.1743223 18.5319543,33.0401832" id="Fill-10"></path>
                    <path d="M40.4180784,31.053663 C40.0545845,31.5490842 39.6910906,31.9764835 39.3998073,32.3990476 C43.0346335,31.2649451 47.3989257,29.1375458 50.234591,25.3781319 C55.8336735,17.9322344 52.9980457,6.65410256 52.9980457,6.65410256 C52.9980457,6.65410256 48.6337535,7.00864469 43.9084833,8.92234432 L43.9806939,9.06564103 C45.1458269,11.7613187 45.6537045,14.3865568 45.6537045,17.0093773 C45.6537045,19.634652 45.071138,22.2574725 43.9806939,24.9531502 C43.1093224,27.0101465 41.9441894,29.0671062 40.4180784,31.053663" id="Fill-11"></path>
                    <path d="M53.361502,27.5784249 C51.760702,29.7058242 49.7241976,31.5490842 47.1798155,33.0401832 C45.2180376,34.1743223 43.0346335,35.167619 40.637151,35.9471795 C40.0545845,36.1584615 39.472018,36.3017216 38.8919298,36.4450183 C42.5267559,37.6495604 47.3989257,38.4995604 51.9076016,37.0812821 C60.9946482,34.3152015 65.5754971,23.6053114 65.5754971,23.6053114 C65.5754971,23.6053114 61.7962873,21.3370696 56.7772555,20.2029304 C56.0502678,23.0394505 54.9598237,25.5214286 53.361502,27.5784249" id="Fill-12"></path>
                </g>
            </g>
        </g>
    </g>
</svg>