<?xml version="1.0" encoding="UTF-8"?>
<svg width="49px" height="56px" viewBox="0 0 49 56" version="1.1" xmlns="http://www.w3.org/2000/svg" xmlns:xlink="http://www.w3.org/1999/xlink">
    <title>Group 28</title>
    <g id="Teams" stroke="none" stroke-width="1" fill="none" fill-rule="evenodd">
        <g id="Teams:Year_progress_desktop" transform="translate(-561.000000, -344.000000)" fill="#FFFFFE">
            <g id="Group-12" transform="translate(505.000000, 298.000000)">
                <g id="Group-25" transform="translate(42.000000, 36.000000)">
                    <g id="Group-28" transform="translate(14.150235, 10.769953)">
                        <path d="M35.5034742,7.95598122 C36.3451268,2.82632864 31.653784,-0.500431925 27.0869108,0.191812207 C22.5175587,0.884056338 18.4288075,2.41047887 16.867493,2.6869108 C15.3036995,2.96578404 10.014723,3.10276056 9.53412207,8.51124883 C9.40461972,9.94306103 9.89769014,11.3400188 11.4141596,12.2140469 L25.4807887,12.2140469 C30.7324319,11.8953239 34.8909296,11.6936338 35.5034742,7.95598122" id="Fill-20"></path>
                        <path d="M19.272939,12.8092019 C21.4094648,12.4680563 23.5210892,12.3310798 25.4807887,12.2140469 L11.4141596,12.2140469 C12.9082066,13.0731643 15.395831,13.4267418 19.272939,12.8092019" id="Fill-22"></path>
                        <path d="M40.8920939,27.2344038 C41.469784,21.9728075 38.7306667,20.1226667 28.7876432,17.8466854 C25.8343662,17.1718685 23.6729765,16.6738404 21.9523005,16.3077934 L8.83188732,16.3077934 C5.29096714,17.8765822 2.66640376,21.3851268 3.42088263,25.5286761 C3.95376526,28.4620469 6.38411268,30.1229296 9.51669484,30.9944789 L34.8709859,30.9944789 C38.1853521,30.4043192 40.6655023,29.3036995 40.8920939,27.2344038" id="Fill-23"></path>
                        <path d="M12.6442817,15.4288075 C11.3319812,15.4661408 10.0296338,15.7774272 8.83188732,16.3077934 L21.9523005,16.3077934 C17.8784601,15.4412394 16.2922817,15.3292019 12.6442817,15.4288075" id="Fill-24"></path>
                        <path d="M18.6977277,31.7863286 C22.6345915,31.6145352 29.7513239,31.9108357 34.8709859,30.9944789 L9.51669484,30.9944789 C12.3031362,31.7713803 15.6448451,31.9207887 18.6977277,31.7863286" id="Fill-25"></path>
                        <path d="M23.2098028,35.6161127 C12.2234366,38.5046385 4.35218779,37.6655023 1.61059155,41.9260845 C-1.12852582,46.1866667 0.158835681,53.1290892 7.09130516,53.2859718 C14.0212958,53.4453333 36.2654648,55.6515681 42.3886573,51.8665915 C47.9092207,48.4526573 48.8355305,42.712939 45.451493,38.7686009 C43.9847887,37.0603944 41.9479061,35.7854648 39.3880563,35.016 L25.7845634,35.016 C24.9454272,35.1903099 24.0913052,35.3820469 23.2098028,35.6161127" id="Fill-26"></path>
                        <path d="M25.7845634,35.016 L39.3880563,35.016 C35.839662,33.9502347 31.2703099,33.8780469 25.7845634,35.016" id="Fill-27"></path>
                    </g>
                </g>
            </g>
        </g>
    </g>
</svg>