<?xml version="1.0" encoding="UTF-8"?>
<svg width="32px" height="32px" viewBox="0 0 32 32" version="1.1" xmlns="http://www.w3.org/2000/svg" xmlns:xlink="http://www.w3.org/1999/xlink">
    <title>Group Copy</title>
    <g id="New-functionality" stroke="none" stroke-width="1" fill="none" fill-rule="evenodd">
        <g id="Group-Copy" transform="translate(1.000000, 1.000000)">
            <g id="arrow-right-circle" transform="translate(15.000000, 15.000000) rotate(-45.000000) translate(-15.000000, -15.000000) translate(5.000000, 5.000000)" stroke="#FFFFFF" stroke-linecap="round" stroke-linejoin="round" stroke-width="2">
                <circle id="Oval" cx="10" cy="10" r="10"></circle>
            </g>
            <g id="Group-13" transform="translate(8.000000, 11.000000)" fill="#FFFFFF">
                <path d="M6.96969697,0.0572353962 C6.96969697,0.0572353962 5.05692537,1.63962213 5.05692537,3.58092153 C5.05692537,5.52222094 6.96969697,7.10512435 6.96969697,7.10512435 C6.96969697,7.10512435 8.88193489,5.52222094 8.88193489,3.58092153 C8.88193489,1.63962213 6.96969697,0.0572353962 6.96969697,0.0572353962" id="Fill-7"></path>
                <path d="M4.60963013,1.87838828 C3.62261749,1.47550414 2.68154113,1.4008637 2.68154113,1.4008637 C2.68154113,1.4008637 2.09588745,3.77520725 3.2835716,5.3427646 C3.86923325,6.13422017 4.79499221,6.5820937 5.58132537,6.82085213 C5.50422857,6.73189127 5.42712381,6.64191247 5.35001905,6.53761326 C5.04161593,6.11939078 4.77967481,5.68634664 4.59431273,5.25329478 C4.36300641,4.68578369 4.23943169,4.13361095 4.23943169,3.58092153 C4.23943169,3.0287488 4.36300641,2.47606709 4.59431273,1.90855601 L4.60963013,1.87838828" id="Fill-9"></path>
                <path d="M3.93102061,6.95582803 C3.39131117,6.64191247 2.95932537,6.25385772 2.62028745,5.80598419 C2.29603325,5.35810295 2.04940952,4.8350723 1.89520797,4.25324851 C0.831090563,4.49201465 0.0289063203,4.96953923 0.0289063203,4.96953923 C0.0289063203,4.96953923 1.00060952,7.20942356 2.91284745,7.8065857 C3.88507636,8.10517062 4.90272381,7.92622325 5.67427325,7.67263543 C5.56601593,7.64246771 5.44244121,7.61230769 5.31939221,7.56782726 C4.81030961,7.40370927 4.347689,7.19459418 3.93102061,6.95582803" id="Fill-10"></path>
                <path d="M8.57353177,6.53761326 C8.49642701,6.64191247 8.41932225,6.73189127 8.35753489,6.82085213 C9.12855861,6.5820937 10.0543176,6.13422017 10.6558223,5.3427646 C11.8435065,3.77520725 11.2420097,1.4008637 11.2420097,1.4008637 C11.2420097,1.4008637 10.3162507,1.47550414 9.31392069,1.87838828 L9.3292381,1.90855601 C9.57638753,2.47606709 9.68411913,3.0287488 9.68411913,3.58092153 C9.68411913,4.13361095 9.56054442,4.68578369 9.3292381,5.25329478 C9.14440173,5.68634664 8.89725229,6.11939078 8.57353177,6.53761326" id="Fill-11"></path>
                <path d="M11.3191065,5.80598419 C10.9795429,6.25385772 10.5475571,6.64191247 10.0078397,6.95582803 C9.59170494,7.19459418 9.12855861,7.40370927 8.62000173,7.56782726 C8.49642701,7.61230769 8.37285229,7.64246771 8.24980329,7.67263543 C9.02082701,7.92622325 10.0543176,8.10517062 11.0107034,7.8065857 C12.9382587,7.22425294 13.9099539,4.96953923 13.9099539,4.96953923 C13.9099539,4.96953923 13.1083034,4.49201465 12.0436603,4.25324851 C11.8894507,4.85041064 11.6581444,5.37293233 11.3191065,5.80598419" id="Fill-12"></path>
            </g>
        </g>
    </g>
</svg>