<?xml version="1.0" encoding="UTF-8"?>
<svg width="13px" height="14px" viewBox="0 0 13 14" version="1.1" xmlns="http://www.w3.org/2000/svg" xmlns:xlink="http://www.w3.org/1999/xlink">
    <title>user (5) copy</title>
    <defs>
        <linearGradient x1="25.3908464%" y1="18.9592634%" x2="90.9297052%" y2="100%" id="linearGradient-1">
            <stop stop-color="#C31D83" offset="0%"></stop>
            <stop stop-color="#2B86C7" offset="100%"></stop>
        </linearGradient>
    </defs>
    <g id="Teams" stroke="none" stroke-width="1" fill="none" fill-rule="evenodd">
        <g id="New_syle_header" transform="translate(-584.000000, -198.000000)" fill="url(#linearGradient-1)" fill-rule="nonzero">
            <g id="Group-12" transform="translate(400.000000, 175.000000)">
                <g id="Group-9" transform="translate(184.000000, 0.000000)">
                    <g id="Group-5" transform="translate(0.000000, 23.000000)">
                        <path d="M9,8 C10.9597201,8 12.5603566,9.53741969 12.6615842,11.4719338 L12.6666667,11.6666667 L12.6666667,13 C12.6666667,13.5522847 12.2189514,14 11.6666667,14 C11.1538308,14 10.7311595,13.6139598 10.6733944,13.1166211 L10.6666667,13 L10.6666667,11.6666667 C10.6666667,10.7946381 9.9969541,10.0790293 9.14380638,10.0061177 L9,10 L3.66666667,10 C2.79463811,10 2.07902931,10.6697126 2.00611766,11.5228603 L2,11.6666667 L2,13 C2,13.5522847 1.55228475,14 1,14 C0.487164161,14 0.0644928393,13.6139598 0.00672773133,13.1166211 L-7.54951657e-14,13 L-7.54951657e-14,11.6666667 C-7.54951657e-14,9.70694659 1.53741969,8.10631012 3.47193384,8.0050825 L3.66666667,8 L9,8 Z M6.33333333,7.63833441e-14 C8.35837742,7.63833441e-14 10,1.64162258 10,3.66666667 C10,5.69171075 8.35837742,7.33333333 6.33333333,7.33333333 C4.30828925,7.33333333 2.66666667,5.69171075 2.66666667,3.66666667 C2.66666667,1.64162258 4.30828925,7.63833441e-14 6.33333333,7.63833441e-14 Z M6.33333333,2 C5.41285875,2 4.66666667,2.74619208 4.66666667,3.66666667 C4.66666667,4.58714125 5.41285875,5.33333333 6.33333333,5.33333333 C7.25380792,5.33333333 8,4.58714125 8,3.66666667 C8,2.74619208 7.25380792,2 6.33333333,2 Z" id="Path"></path>
                    </g>
                </g>
            </g>
        </g>
    </g>
</svg>