<?xml version="1.0" encoding="UTF-8"?>
<svg width="22px" height="22px" viewBox="0 0 22 22" version="1.1" xmlns="http://www.w3.org/2000/svg" xmlns:xlink="http://www.w3.org/1999/xlink">
    <title>pie-chart copy</title>
    <defs>
        <linearGradient x1="17.0703125%" y1="0.0233366682%" x2="82.5585937%" y2="85.8773442%" id="linearGradient-1">
            <stop stop-color="#C31D83" offset="0%"></stop>
            <stop stop-color="#2B86C7" offset="100%"></stop>
        </linearGradient>
    </defs>
    <g id="New-functionality" stroke="none" stroke-width="1" fill="none" fill-rule="evenodd">
        <g id="pie-chart-copy" fill="url(#linearGradient-1)" fill-rule="nonzero">
            <path d="M7.91653273,1.43004031 C8.13742437,1.93622735 7.90614674,2.52564109 7.39995969,2.74653273 C3.69319516,4.36410334 1.52064793,8.25558941 2.08886805,12.2598077 C2.65708818,16.2640259 5.8265091,19.397458 9.83695506,19.9199149 C13.847401,20.4423718 17.7138239,18.2255274 19.2889597,14.5005327 C19.5040565,13.9918562 20.0907908,13.7538629 20.5994673,13.9689597 C21.1081438,14.1840565 21.3461371,14.7707908 21.1310403,15.2794673 C19.2058744,19.8322385 14.4802464,22.541715 9.57859019,21.9031566 C4.67693402,21.2645981 0.803197341,17.4348479 0.108706078,12.5408033 C-0.585785184,7.64675878 2.06955032,2.89049802 6.60004031,0.913467271 C7.10622735,0.692575631 7.69564109,0.923853257 7.91653273,1.43004031 Z M11,0 C13.9173814,0 16.7152744,1.15892524 18.7781746,3.22182541 C20.8410748,5.28472557 22,8.08261861 22,11 C22,11.5522847 21.5522847,12 21,12 L21,12 L11,12 C10.4477153,12 10,11.5522847 10,11 L10,11 L10,1 C10,0.44771525 10.4477153,0 11,0 Z M12,2.056 L12,10 L19.943,10 L19.9150591,9.76615535 C19.6618824,7.93664143 18.8501676,6.22064687 17.5799009,4.85955933 L17.5799009,4.85955933 L17.363961,4.63603897 C15.9696688,3.24174676 14.1649982,2.35218295 12.2338447,2.08494086 L12.2338447,2.08494086 L12,2.056 Z" id="Combined-Shape"></path>
        </g>
    </g>
</svg>