<?xml version="1.0" encoding="UTF-8"?>
<svg width="16px" height="16px" viewBox="0 0 16 16" version="1.1" xmlns="http://www.w3.org/2000/svg" xmlns:xlink="http://www.w3.org/1999/xlink">
    <title>Group 7 Copy</title>
    <defs>
        <linearGradient x1="17.0703125%" y1="0%" x2="82.5585937%" y2="85.8940972%" id="linearGradient-1">
            <stop stop-color="#C31D83" offset="0%"></stop>
            <stop stop-color="#2B86C7" offset="100%"></stop>
        </linearGradient>
    </defs>
    <g id="Teams" stroke="none" stroke-width="1" fill="none" fill-rule="evenodd">
        <g id="New_syle_header" transform="translate(-711.000000, -199.000000)">
            <g id="Group-16" transform="translate(712.000000, 175.000000)">
                <g id="Group-7-Copy" transform="translate(0.000000, 25.000000)">
                    <g id="activity-(1)" transform="translate(4.000000, 4.000000)"></g>
                    <g id="settings-(5)" fill="url(#linearGradient-1)" fill-rule="nonzero">
                        <path d="M7,-1 C8.25519261,-1 9.27272727,0.0175346595 9.27272727,1.27272727 L9.27272727,1.27272727 L9.27271932,1.32601169 C9.2727988,1.34594026 9.28470506,1.36391871 9.31285625,1.37604651 C9.33155595,1.38429943 9.35339605,1.38033941 9.36016595,1.37380231 L9.36016595,1.37380231 L9.39795455,1.33601393 C9.82424604,0.909247922 10.4027063,0.669453346 11.0059091,0.669453346 C11.6091119,0.669453346 12.1875721,0.909247922 12.613077,1.33522727 C13.039843,1.76151877 13.2796376,2.33997898 13.2796376,2.94318182 C13.2796376,3.54638465 13.039843,4.12484487 12.6134704,4.55074314 L12.6134704,4.55074314 L12.5830444,4.58108314 C12.5687515,4.59569486 12.5647915,4.61753496 12.5730444,4.63623466 L12.5730444,4.63623466 L12.605,4.724 L12.6190909,4.72727273 L12.7272727,4.72727273 C13.9824653,4.72727273 15,5.74480739 15,7 C15,8.25519261 13.9824653,9.27272727 12.7272727,9.27272727 L12.7272727,9.27272727 L12.6739883,9.27271932 C12.6540597,9.2727988 12.6360813,9.28470506 12.6239535,9.31285625 C12.6157006,9.33155595 12.6196606,9.35339605 12.6261977,9.36016595 L12.6261977,9.36016595 L12.6639861,9.39795455 C13.0907521,9.82424604 13.3305467,10.4027063 13.3305467,11.0059091 C13.3305467,11.6091119 13.0907521,12.1875721 12.6647727,12.613077 C12.2384812,13.039843 11.660021,13.2796376 11.0568182,13.2796376 C10.4536153,13.2796376 9.87515513,13.039843 9.44925686,12.6134704 L9.44925686,12.6134704 L9.41891686,12.5830444 C9.40430514,12.5687515 9.38246504,12.5647915 9.35393144,12.5773216 C9.33561415,12.5851722 9.32370789,12.6031506 9.32363636,12.6190909 L9.32363636,12.6190909 L9.32363636,12.7272727 C9.32363636,13.9824653 8.3061017,15 7.05090909,15 C5.79571648,15 4.77818182,13.9824653 4.77818182,12.7272727 L4.77818182,12.7272727 L4.77845528,12.6933846 C4.77797517,12.6728595 4.76499684,12.6547138 4.68714375,12.6239535 C4.66844405,12.6157006 4.64660395,12.6196606 4.63983405,12.6261977 L4.63983405,12.6261977 L4.60204545,12.6639861 C4.17575396,13.0907521 3.59729375,13.3305467 2.99409091,13.3305467 C2.39088807,13.3305467 1.81242786,13.0907521 1.38692302,12.6647727 C0.960157013,12.2384812 0.720362437,11.660021 0.720362437,11.0568182 C0.720362437,10.4536153 0.960157013,9.87515513 1.38652958,9.44925686 L1.38652958,9.44925686 L1.4169556,9.41891686 C1.4312485,9.40430514 1.43520852,9.38246504 1.42267836,9.35393144 C1.4148278,9.33561415 1.39684935,9.32370789 1.38090909,9.32363636 L1.38090909,9.32363636 L1.27272727,9.32363636 C0.0175346595,9.32363636 -1,8.3061017 -1,7.05090909 C-1,5.79571648 0.0175346595,4.77818182 1.27272727,4.77818182 L1.27272727,4.77818182 L1.30661541,4.77845528 C1.32714054,4.77797517 1.34528616,4.76499684 1.37604651,4.68714375 C1.38429943,4.66844405 1.38033941,4.64660395 1.37380231,4.63983405 L1.37380231,4.63983405 L1.33601393,4.60204545 C0.909247922,4.17575396 0.669453346,3.59729375 0.669453346,2.99409091 C0.669453346,2.39088807 0.909247922,1.81242786 1.33522727,1.38692302 C1.76151877,0.960157013 2.33997898,0.720362437 2.94318182,0.720362437 C3.54638465,0.720362437 4.12484487,0.960157013 4.55074314,1.38652958 L4.55074314,1.38652958 L4.58108314,1.4169556 C4.59569486,1.4312485 4.61753496,1.43520852 4.63623466,1.4269556 L4.63623466,1.4269556 L4.724,1.394 L4.72727273,1.38090909 L4.72727273,1.27272727 C4.72727273,0.0175346595 5.74480739,-1 7,-1 Z M2.94318182,2.72036244 C2.87079748,2.72036244 2.80138225,2.74913779 2.74944062,2.80113636 C2.6982287,2.85229134 2.66945335,2.92170657 2.66945335,2.99409091 C2.66945335,3.06647525 2.6982287,3.13589048 2.74983405,3.18743867 L2.74983405,3.18743867 L2.79577168,3.23346231 C3.3817808,3.8325428 3.54414152,4.72798677 3.22944519,5.43609018 L3.22944519,5.43609018 L3.16538627,5.59058053 C2.83915181,6.29478464 2.13725379,6.75955465 1.33,6.77818182 L1.33,6.77818182 L1.27272727,6.77818182 C1.12210416,6.77818182 1,6.90028598 1,7.05090909 C1,7.2015322 1.12210416,7.32363636 1.27272727,7.32363636 L1.27272727,7.32363636 L1.3848974,7.32364432 C2.20196891,7.32690308 2.93908529,7.81505962 3.25668077,8.55623466 C3.59505061,9.32292232 3.43268989,10.2183663 2.83892496,10.8252886 L2.83892496,10.8252886 L2.80034971,10.8638636 C2.74913779,10.9150186 2.72036244,10.9844338 2.72036244,11.0568182 C2.72036244,11.1292025 2.74913779,11.1986177 2.80113636,11.2505594 C2.85229134,11.3017713 2.92170657,11.3305467 2.99409091,11.3305467 C3.06647525,11.3305467 3.13589048,11.3017713 3.18743867,11.2501659 L3.18743867,11.2501659 L3.23346231,11.2042283 C3.8325428,10.6182192 4.72798677,10.4558585 5.43609018,10.7705548 L5.43609018,10.7705548 L5.59058053,10.8346137 C6.29478464,11.1608482 6.75955465,11.8627462 6.77818182,12.67 L6.77818182,12.67 L6.77818182,12.7272727 C6.77818182,12.8778958 6.90028598,13 7.05090909,13 C7.2015322,13 7.32363636,12.8778958 7.32363636,12.7272727 L7.32363636,12.7272727 L7.32364432,12.6151026 C7.32628976,11.9518081 7.64848814,11.341205 8.16618827,10.9649546 C7.71885688,11.0839275 7.1966539,10.8973884 6.98519525,10.4058987 L6.94217371,10.2873479 L6.091,7.449 L6.06384791,7.50390525 C5.90721039,7.77251384 5.63197718,7.95557215 5.31898439,7.99293561 L5.2,8 L4,8 C3.44771525,8 3,7.55228475 3,7 C3,6.48716416 3.38604019,6.06449284 3.88337887,6.00672773 L4,6 L4.456,6 L5.14217371,3.71265211 C5.19266758,3.54433922 5.27643511,3.4058402 5.38168853,3.29715506 L5.35748144,3.30563314 L5.267,3.323 L5.13121238,3.3654874 C4.49632886,3.53034673 3.81464902,3.38065435 3.29981918,2.95190535 L3.29981918,2.95190535 L3.1747114,2.83892496 L3.13613636,2.80034971 C3.08498138,2.74913779 3.01556616,2.72036244 2.94318182,2.72036244 Z M7,1 C6.84937689,1 6.72727273,1.12210416 6.72727273,1.27272727 L6.72727273,1.27272727 L6.72726477,1.3848974 C6.72465776,2.03855461 6.41171618,2.64104053 5.90212724,3.02068745 L5.94107392,3.01212452 C6.36173906,2.94746043 6.82005712,3.14145269 7.01480475,3.59410129 L7.05782629,3.71265211 L7.908,6.55 L7.93615209,6.49609475 C8.09278961,6.22748616 8.36802282,6.04442785 8.68101561,6.00706439 L8.8,6 L10,6 C10.5522847,6 11,6.44771525 11,7 C11,7.51283584 10.6139598,7.93550716 10.1166211,7.99327227 L10,8 L9.543,8 L8.85782629,10.2873479 C8.80258905,10.471472 8.70753312,10.6199177 8.5880901,10.7326851 C9.34674953,10.4093557 10.2264586,10.575227 10.8252886,11.161075 L10.8252886,11.161075 L10.8638636,11.1996503 C10.9150186,11.2508622 10.9844338,11.2796376 11.0568182,11.2796376 C11.1292025,11.2796376 11.1986177,11.2508622 11.2505594,11.1988636 C11.3017713,11.1477087 11.3305467,11.0782934 11.3305467,11.0059091 C11.3305467,10.9335248 11.3017713,10.8641095 11.2501659,10.8125613 L11.2501659,10.8125613 L11.2042283,10.7665377 C10.6182192,10.1674572 10.4558585,9.27201323 10.7899511,8.51515947 C11.1118238,7.76415053 11.8489402,7.27599399 12.67,7.27272727 L12.67,7.27272727 L12.7272727,7.27272727 C12.8778958,7.27272727 13,7.15062311 13,7 C13,6.84937689 12.8778958,6.72727273 12.7272727,6.72727273 L12.7272727,6.72727273 L12.6151026,6.72726477 C11.7980311,6.72400601 11.0609147,6.23584947 10.739042,5.48484053 C10.7212585,5.44334712 10.7063461,5.40079374 10.6943669,5.35748144 L10.6943669,5.35748144 L10.676,5.267 L10.6345126,5.13121238 C10.4696533,4.49632886 10.6193457,3.81464902 11.0480946,3.29981918 L11.0480946,3.29981918 L11.161075,3.1747114 L11.1996503,3.13613636 C11.2508622,3.08498138 11.2796376,3.01556616 11.2796376,2.94318182 C11.2796376,2.87079748 11.2508622,2.80138225 11.1988636,2.74944062 C11.1477087,2.6982287 11.0782934,2.66945335 11.0059091,2.66945335 C10.9335248,2.66945335 10.8641095,2.6982287 10.8125613,2.74983405 L10.8125613,2.74983405 L10.7665377,2.79577168 C10.1674572,3.3817808 9.27201323,3.54414152 8.51515947,3.21004892 C7.76415053,2.8881762 7.27599399,2.15105982 7.27272727,1.33 L7.27272727,1.33 L7.27272727,1.27272727 C7.27272727,1.12210416 7.15062311,1 7,1 Z" id="Combined-Shape"></path>
                    </g>
                </g>
            </g>
        </g>
    </g>
</svg>