<?xml version="1.0" encoding="UTF-8"?>
<svg width="22px" height="22px" viewBox="0 0 22 22" version="1.1" xmlns="http://www.w3.org/2000/svg" xmlns:xlink="http://www.w3.org/1999/xlink">
    <title>compass copy</title>
    <defs>
        <linearGradient x1="17.0703125%" y1="0%" x2="82.5585937%" y2="85.8940972%" id="linearGradient-1">
            <stop stop-color="#C31D83" offset="0%"></stop>
            <stop stop-color="#2B86C7" offset="100%"></stop>
        </linearGradient>
    </defs>
    <g id="New-functionality" stroke="none" stroke-width="1" fill="none" fill-rule="evenodd">
        <g id="compass-copy" transform="translate(1.000000, 1.000000)" fill="url(#linearGradient-1)" fill-rule="nonzero">
            <path d="M10,-1 C16.0751322,-1 21,3.92486775 21,10 C21,16.0751322 16.0751322,21 10,21 C3.92486775,21 -1,16.0751322 -1,10 C-1,3.92486775 3.92486775,-1 10,-1 Z M10,1 C5.02943725,1 1,5.02943725 1,10 C1,14.9705627 5.02943725,19 10,19 C14.9705627,19 19,14.9705627 19,10 C19,5.02943725 14.9705627,1 10,1 Z M13.9237722,4.8113167 C14.7055303,4.55073069 15.4492693,5.29446974 15.1886833,6.07622777 L15.1886833,6.07622777 L13.0686833,12.4362278 C12.9691483,12.7348328 12.7348328,12.9691483 12.4362278,13.0686833 L12.4362278,13.0686833 L6.07622777,15.1886833 C5.29446974,15.4492693 4.55073069,14.7055303 4.8113167,13.9237722 L4.8113167,13.9237722 L6.9313167,7.56377223 C7.0308517,7.26516724 7.26516724,7.0308517 7.56377223,6.9313167 L7.56377223,6.9313167 Z M12.658,7.341 L8.67,8.67 L7.341,12.659 L11.329,11.329 L12.658,7.341 Z" id="Combined-Shape"></path>
        </g>
    </g>
</svg>