<?xml version="1.0" encoding="UTF-8"?>
<svg width="30px" height="30px" viewBox="0 0 30 30" version="1.1" xmlns="http://www.w3.org/2000/svg" xmlns:xlink="http://www.w3.org/1999/xlink">
    <title>Group Copy 3</title>
    <defs>
        <linearGradient x1="17.0703125%" y1="0%" x2="82.5585937%" y2="85.8940972%" id="linearGradient-1">
            <stop stop-color="#C31D83" offset="0%"></stop>
            <stop stop-color="#2B86C7" offset="100%"></stop>
        </linearGradient>
    </defs>
    <g id="New-functionality" stroke="none" stroke-width="1" fill="none" fill-rule="evenodd">
        <g id="Group-Copy-3">
            <g id="arrow-right-circle" transform="translate(15.000000, 15.000000) rotate(-45.000000) translate(-15.000000, -15.000000) translate(5.000000, 5.000000)"></g>
            <g id="Group-13" transform="translate(5.000000, 5.000000)" fill="url(#linearGradient-1)">
                <path d="M10,-1 C16.0751322,-1 21,3.92486775 21,10 C21,16.0751322 16.0751322,21 10,21 C3.92486775,21 -1,16.0751322 -1,10 C-1,3.92486775 3.92486775,-1 10,-1 Z M10,1 C5.02943725,1 1,5.02943725 1,10 C1,14.9705627 5.02943725,19 10,19 C14.9705627,19 19,14.9705627 19,10 C19,5.02943725 14.9705627,1 10,1 Z M4.89520797,10.2532485 C5.04940952,10.8350723 5.29603325,11.3581029 5.62028745,11.8059842 C5.95932537,12.2538577 6.39131117,12.6419125 6.93102061,12.955828 C7.347689,13.1945942 7.81030961,13.4037093 8.31939221,13.5678273 C8.44244121,13.6123077 8.56601593,13.6424677 8.67427325,13.6726354 C7.90272381,13.9262233 6.88507636,14.1051706 5.91284745,13.8065857 C4.00060952,13.2094236 3.02890632,10.9695392 3.02890632,10.9695392 C3.02890632,10.9695392 3.83109056,10.4920147 4.89520797,10.2532485 Z M15.0436603,10.2532485 C16.1083034,10.4920147 16.9099539,10.9695392 16.9099539,10.9695392 C16.9099539,10.9695392 15.9382587,13.2242529 14.0107034,13.8065857 C13.0543176,14.1051706 12.020827,13.9262233 11.2498033,13.6726354 C11.3728523,13.6424677 11.496427,13.6123077 11.6200017,13.5678273 C12.1285586,13.4037093 12.5917049,13.1945942 13.0078397,12.955828 C13.5475571,12.6419125 13.9795429,12.2538577 14.3191065,11.8059842 C14.6581444,11.3729323 14.8894507,10.8504106 15.0436603,10.2532485 Z M9.96969697,6.0572354 C9.96969697,6.0572354 11.8819349,7.63962213 11.8819349,9.58092153 C11.8819349,11.5222209 9.96969697,13.1051243 9.96969697,13.1051243 C9.96969697,13.1051243 8.05692537,11.5222209 8.05692537,9.58092153 C8.05692537,7.63962213 9.96969697,6.0572354 9.96969697,6.0572354 Z M5.68154113,7.4008637 C5.68154113,7.4008637 6.62261749,7.47550414 7.60963013,7.87838828 L7.60963013,7.87838828 L7.59431273,7.90855601 C7.36300641,8.47606709 7.23943169,9.0287488 7.23943169,9.58092153 C7.23943169,10.133611 7.36300641,10.6857837 7.59431273,11.2532948 C7.77967481,11.6863466 8.04161593,12.1193908 8.35001905,12.5376133 C8.42712381,12.6419125 8.50422857,12.7318913 8.58132537,12.8208521 C7.79499221,12.5820937 6.86923325,12.1342202 6.2835716,11.3427646 C5.09588745,9.77520725 5.68154113,7.4008637 5.68154113,7.4008637 Z M14.2420097,7.4008637 C14.2420097,7.4008637 14.8435065,9.77520725 13.6558223,11.3427646 C13.0543176,12.1342202 12.1285586,12.5820937 11.3575349,12.8208521 C11.4193223,12.7318913 11.496427,12.6419125 11.5735318,12.5376133 C11.8972523,12.1193908 12.1444017,11.6863466 12.3292381,11.2532948 C12.5605444,10.6857837 12.6841191,10.133611 12.6841191,9.58092153 C12.6841191,9.0287488 12.5763875,8.47606709 12.3292381,7.90855601 L12.3292381,7.90855601 L12.3139207,7.87838828 C13.3162507,7.47550414 14.2420097,7.4008637 14.2420097,7.4008637 Z" id="Combined-Shape"></path>
            </g>
        </g>
    </g>
</svg>