<?xml version="1.0" encoding="UTF-8"?>
<svg width="32px" height="32px" viewBox="0 0 32 32" version="1.1" xmlns="http://www.w3.org/2000/svg" xmlns:xlink="http://www.w3.org/1999/xlink">
    <title>arrow-right-circle copy</title>
    <defs>
        <linearGradient x1="50%" y1="0%" x2="50%" y2="100%" id="linearGradient-1">
            <stop stop-color="#C31D83" offset="0%"></stop>
            <stop stop-color="#2B86C7" offset="100%"></stop>
        </linearGradient>
    </defs>
    <g id="New-functionality" stroke="none" stroke-width="1" fill="none" fill-rule="evenodd">
        <g id="arrow-right-circle-copy" transform="translate(16.000000, 16.000000) rotate(-45.000000) translate(-16.000000, -16.000000) translate(5.000000, 5.000000)" fill="url(#linearGradient-1)" fill-rule="nonzero">
            <path d="M11,1.36424205e-12 C17.0751322,1.36424205e-12 22,4.92486775 22,11 C22,17.0751322 17.0751322,22 11,22 C4.92486775,22 2.27373675e-12,17.0751322 2.27373675e-12,11 C2.27373675e-12,4.92486775 4.92486775,1.36424205e-12 11,1.36424205e-12 Z M11,2 C6.02943725,2 2,6.02943725 2,11 C2,15.9705627 6.02943725,20 11,20 C15.9705627,20 20,15.9705627 20,11 C20,6.02943725 15.9705627,2 11,2 Z M11.5114029,6.14038077 L11.6128994,6.20970461 L11.7071068,6.29289322 L15.7071068,10.2928932 C15.7425008,10.3282873 15.774687,10.3656744 15.8036654,10.4046934 L15.8753288,10.5159379 L15.9287745,10.628664 L15.9641549,10.734007 L15.9931658,10.8825258 L16,11 L15.9972121,11.0752385 L15.9797599,11.2007258 L15.9502619,11.3121425 L15.9063266,11.4232215 L15.8540045,11.5207088 L15.7803112,11.625449 L15.7071068,11.7071068 L11.7071068,15.7071068 C11.3165825,16.0976311 10.6834175,16.0976311 10.2928932,15.7071068 C9.93240926,15.3466228 9.90467972,14.7793918 10.2097046,14.3871006 L10.2928932,14.2928932 L12.586,11.999 L7,12 C6.44771525,12 6,11.5522847 6,11 C6,10.4871642 6.38604019,10.0644928 6.88337887,10.0067277 L7,10 L12.584,9.999 L10.2928932,7.70710678 C9.93240926,7.34662282 9.90467972,6.77939176 10.2097046,6.38710056 L10.2928932,6.29289322 C10.6233369,5.96244959 11.1275055,5.91161211 11.5114029,6.14038077 Z" id="Combined-Shape"></path>
        </g>
    </g>
</svg>