<?xml version="1.0" encoding="UTF-8"?>
<svg width="24px" height="24px" viewBox="0 0 24 24" version="1.1" xmlns="http://www.w3.org/2000/svg" xmlns:xlink="http://www.w3.org/1999/xlink">
    <title>settings (6) copy</title>
    <defs>
        <linearGradient x1="17.0703125%" y1="0%" x2="82.5585937%" y2="85.8940972%" id="linearGradient-1">
            <stop stop-color="#C31D83" offset="0%"></stop>
            <stop stop-color="#2B86C7" offset="100%"></stop>
        </linearGradient>
    </defs>
    <g id="Teams" stroke="none" stroke-width="1" fill="none" fill-rule="evenodd">
        <g id="Teams:Admin_picker_header" transform="translate(-581.000000, -237.000000)" fill="url(#linearGradient-1)" fill-rule="nonzero">
            <g id="settings-(6)-copy" transform="translate(582.000000, 238.000000)">
                <path d="M11,-1 C12.6568542,-1 14,0.343145751 14,2 L14,2 L14,2.08601169 C14.0010253,2.34508314 14.1558067,2.57880297 14.4037653,2.68513742 C14.6468614,2.79242541 14.9307827,2.74094519 15.1128932,2.56289322 L15.1128932,2.56289322 L15.3172635,2.36763594 C15.8626928,1.88939884 16.5651246,1.62342669 17.295,1.62342669 C18.0912277,1.62342669 18.8547952,1.93995553 19.4167133,2.5025 C19.9800445,3.06520477 20.2965733,3.82877226 20.2965733,4.625 C20.2965733,5.42122774 19.9800445,6.18479523 19.4171068,6.74710678 L19.4171068,6.74710678 L19.3648626,6.79926496 C19.1790548,6.98921731 19.1275746,7.27313857 19.2348626,7.51623466 C19.2535763,7.55863662 19.2692739,7.60218413 19.2818868,7.64655191 L19.2818868,7.64655191 L19.294,7.706 L19.338646,7.76793506 C19.4392678,7.88796773 19.5805489,7.96856814 19.7355607,7.99254572 L19.7355607,7.99254572 L19.83,8 L20,8 C21.6568542,8 23,9.34314575 23,11 C23,12.6568542 21.6568542,14 20,14 L20,14 L19.9139883,14 C19.6549169,14.0010253 19.421197,14.1558067 19.3148626,14.4037653 C19.2075746,14.6468614 19.2590548,14.9307827 19.4371068,15.1128932 L19.4371068,15.1128932 L19.6323641,15.3172635 C20.1106012,15.8626928 20.3765733,16.5651246 20.3765733,17.295 C20.3765733,18.0912277 20.0600445,18.8547952 19.4975,19.4167133 C18.9347952,19.9800445 18.1712277,20.2965733 17.375,20.2965733 C16.5787723,20.2965733 15.8152048,19.9800445 15.2528932,19.4171068 L15.2528932,19.4171068 L15.200735,19.3648626 C15.0107827,19.1790548 14.7268614,19.1275746 14.4739314,19.2391398 C14.2358067,19.341197 14.0810253,19.5749169 14.08,19.83 L14.08,19.83 L14.08,20 C14.08,21.6568542 12.7368542,23 11.08,23 C9.42314575,23 8.08,21.6568542 8.08,20 L8.08,20 L8.08027346,19.9333846 C8.07403212,19.6665579 7.90531385,19.4306648 7.59623466,19.3148626 C7.35313857,19.2075746 7.06921731,19.2590548 6.88710678,19.4371068 L6.88710678,19.4371068 L6.68273651,19.6323641 C6.13730717,20.1106012 5.43487543,20.3765733 4.705,20.3765733 C3.90877226,20.3765733 3.14520477,20.0600445 2.58328666,19.4975 C2.01995553,18.9347952 1.70342669,18.1712277 1.70342669,17.375 C1.70342669,16.5787723 2.01995553,15.8152048 2.58289322,15.2528932 L2.58289322,15.2528932 L2.63513742,15.200735 C2.82094519,15.0107827 2.87242541,14.7268614 2.76086017,14.4739314 C2.65880297,14.2358067 2.42508314,14.0810253 2.17,14.08 L2.17,14.08 L2,14.08 C0.343145751,14.08 -1,12.7368542 -1,11.08 C-1,9.42314575 0.343145751,8.08 2,8.08 L2,8.08 L2.06661541,8.08027346 C2.33344206,8.07403212 2.56933519,7.90531385 2.68513742,7.59623466 C2.79242541,7.35313857 2.74094519,7.06921731 2.56289322,6.88710678 L2.56289322,6.88710678 L2.36763594,6.68273651 C1.88939884,6.13730717 1.62342669,5.43487543 1.62342669,4.705 C1.62342669,3.90877226 1.93995553,3.14520477 2.5025,2.58328666 C3.06520477,2.01995553 3.82877226,1.70342669 4.625,1.70342669 C5.42122774,1.70342669 6.18479523,2.01995553 6.74710678,2.58289322 L6.74710678,2.58289322 L6.79926496,2.63513742 C6.98921731,2.82094519 7.27313857,2.87242541 7.51623466,2.76513742 C7.55863662,2.74642374 7.60218413,2.73072613 7.64655191,2.71811318 L7.64655191,2.71811318 L7.706,2.705 L7.76793506,2.66135396 C7.88796773,2.5607322 7.96856814,2.41945115 7.99254572,2.26443934 L7.99254572,2.26443934 L8,2.17 L8,2 C8,0.343145751 9.34314575,-1 11,-1 Z M11,1 C10.4477153,1 10,1.44771525 10,2 L10,2 L10,2.17398831 C9.9957795,3.2302027 9.36474787,4.18306046 8.39393144,4.59913983 C8.26945121,4.65249044 8.13543123,4.68 8,4.68 L8,4.68 L7.967942,4.72251349 C7.12567808,4.95835103 6.21375531,4.76253037 5.53472482,4.18637207 L5.53472482,4.18637207 L5.39289322,4.05710678 L5.3325,3.99671334 C5.14493174,3.8089363 4.89040925,3.70342669 4.625,3.70342669 C4.35959075,3.70342669 4.10506826,3.8089363 3.91671334,3.9975 C3.7289363,4.18506826 3.62342669,4.43959075 3.62342669,4.705 C3.62342669,4.97040925 3.7289363,5.22493174 3.91710678,5.41289322 L3.91710678,5.41289322 L3.98486258,5.48073504 C4.74238657,6.25515616 4.9522675,7.41268129 4.5385361,8.34518109 L4.5385361,8.34518109 L4.46625808,8.52187365 C4.04927385,9.44506227 3.13585063,10.055794 2.09,10.08 L2.09,10.08 L2,10.08 C1.44771525,10.08 1,10.5277153 1,11.08 C1,11.6322847 1.44771525,12.08 2,12.08 L2,12.08 L2.17398831,12.080008 C3.2302027,12.0842205 4.18306046,12.7152521 4.59486258,13.6762347 C5.0322675,14.6673187 4.82238657,15.8248438 4.05710678,16.6071068 L4.05710678,16.6071068 L3.99671334,16.6675 C3.8089363,16.8550683 3.70342669,17.1095908 3.70342669,17.375 C3.70342669,17.6404092 3.8089363,17.8949317 3.9975,18.0832867 C4.18506826,18.2710637 4.43959075,18.3765733 4.705,18.3765733 C4.97040925,18.3765733 5.22493174,18.2710637 5.41289322,18.0828932 L5.41289322,18.0828932 L5.48073504,18.0151374 C6.25515616,17.2576134 7.41268129,17.0477325 8.34518109,17.4614639 L8.34518109,17.4614639 L8.52187365,17.5337419 C9.44506227,17.9507261 10.055794,18.8641494 10.08,19.91 L10.08,19.91 L10.08,20 C10.08,20.5522847 10.5277153,21 11.08,21 C11.6322847,21 12.08,20.5522847 12.08,20 L12.08,20 L12.080008,19.8260117 C12.0842205,18.7697973 12.7152521,17.8169395 13.6762347,17.4051374 C14.6673187,16.9677325 15.8248438,17.1776134 16.6071068,17.9428932 L16.6071068,17.9428932 L16.6675,18.0032867 C16.8550683,18.1910637 17.1095908,18.2965733 17.375,18.2965733 C17.6404092,18.2965733 17.8949317,18.1910637 18.0832867,18.0025 C18.2710637,17.8149317 18.3765733,17.5604092 18.3765733,17.295 C18.3765733,17.0295908 18.2710637,16.7750683 18.0828932,16.5871068 L18.0828932,16.5871068 L18.0151374,16.519265 C17.2576134,15.7448438 17.0477325,14.5873187 17.4808602,13.6060686 C17.8969395,12.6352521 18.8497973,12.0042205 19.91,12 L19.91,12 L20,12 C20.5522847,12 21,11.5522847 21,11 C21,10.4477153 20.5522847,10 20,10 L20,10 L19.8260117,10 C18.7697973,9.9957795 17.8169395,9.36474787 17.4008602,8.39393144 C17.3475096,8.26945121 17.32,8.13543123 17.32,8 L17.32,8 L17.2774865,7.967942 C17.041649,7.12567808 17.2374696,6.21375531 17.8136279,5.53472482 L17.8136279,5.53472482 L17.9428932,5.39289322 L18.0032867,5.3325 C18.1910637,5.14493174 18.2965733,4.89040925 18.2965733,4.625 C18.2965733,4.35959075 18.1910637,4.10506826 18.0025,3.91671334 C17.8149317,3.7289363 17.5604092,3.62342669 17.295,3.62342669 C17.0295908,3.62342669 16.7750683,3.7289363 16.5871068,3.91710678 L16.5871068,3.91710678 L16.519265,3.98486258 C15.7448438,4.74238657 14.5873187,4.9522675 13.6060686,4.51913983 C12.6352521,4.10306046 12.0042205,3.1502027 12,2.09 L12,2.09 L12,2 C12,1.44771525 11.5522847,1 11,1 Z M11,7 C13.209139,7 15,8.790861 15,11 C15,13.209139 13.209139,15 11,15 C8.790861,15 7,13.209139 7,11 C7,8.790861 8.790861,7 11,7 Z M11,9 C9.8954305,9 9,9.8954305 9,11 C9,12.1045695 9.8954305,13 11,13 C12.1045695,13 13,12.1045695 13,11 C13,9.8954305 12.1045695,9 11,9 Z" id="Combined-Shape"></path>
            </g>
        </g>
    </g>
</svg>