<?xml version="1.0" encoding="UTF-8"?>
<svg width="17px" height="14px" viewBox="0 0 17 14" version="1.1" xmlns="http://www.w3.org/2000/svg" xmlns:xlink="http://www.w3.org/1999/xlink">
    <title>Group 10 Copy</title>
    <defs>
        <linearGradient x1="25.3242188%" y1="14.72%" x2="83.3320313%" y2="85.28%" id="linearGradient-1">
            <stop stop-color="#C31D83" offset="0%"></stop>
            <stop stop-color="#2B86C7" offset="100%"></stop>
        </linearGradient>
    </defs>
    <g id="Teams" stroke="none" stroke-width="1" fill="none" fill-rule="evenodd">
        <g id="New_syle_header" transform="translate(-489.000000, -199.000000)" fill="url(#linearGradient-1)" fill-rule="nonzero">
            <g id="Group-12" transform="translate(400.000000, 175.000000)">
                <g id="Group-11" transform="translate(89.000000, 0.000000)">
                    <g id="Group-10-Copy" transform="translate(0.000000, 24.000000)">
                        <path d="M9,8 C10.9597201,8 12.5603566,9.53741969 12.6615842,11.4719338 L12.6666667,11.6666667 L12.6666667,13 C12.6666667,13.5522847 12.2189514,14 11.6666667,14 C11.1538308,14 10.7311595,13.6139598 10.6733944,13.1166211 L10.6666667,13 L10.6666667,11.6666667 C10.6666667,10.7946381 9.9969541,10.0790293 9.14380638,10.0061177 L9,10 L3.66666667,10 C2.79463811,10 2.07902931,10.6697126 2.00611766,11.5228603 L2,11.6666667 L2,13 C2,13.5522847 1.55228475,14 1,14 C0.487164161,14 0.0644928393,13.6139598 0.00672773132,13.1166211 L-6.8567374e-13,13 L-6.8567374e-13,11.6666667 C-6.8567374e-13,9.70694659 1.53741969,8.10631012 3.47193384,8.0050825 L3.66666667,8 L9,8 Z M13.9166664,8.11842076 C15.4698653,8.51945452 16.5741736,9.87990853 16.6611361,11.4671352 L16.6666667,11.6666667 L16.6666667,13 C16.6666667,13.5522847 16.2189514,14 15.6666667,14 C15.1538308,14 14.7311595,13.6139598 14.6733944,13.1166211 L14.6666667,13 L14.6666669,11.6674126 C14.6661382,10.9585139 14.2183367,10.3336356 13.5607117,10.0990869 L13.4166669,10.0549126 C12.8819195,9.91684154 12.5603497,9.37141439 12.6984208,8.83666694 C12.8364918,8.3019195 13.3819189,7.98034972 13.9166664,8.11842076 Z M6.33333333,6.8567374e-13 C8.35837742,6.8567374e-13 10,1.64162258 10,3.66666667 C10,5.69171075 8.35837742,7.33333333 6.33333333,7.33333333 C4.30828925,7.33333333 2.66666667,5.69171075 2.66666667,3.66666667 C2.66666667,1.64162258 4.30828925,6.8567374e-13 6.33333333,6.8567374e-13 Z M11.2480392,0.117916667 C12.8704611,0.533322305 14.0052288,1.99524188 14.0052288,3.67 C14.0052288,5.34475812 12.8704611,6.80667769 11.2480392,7.22208333 C10.7130133,7.35907159 10.1682383,7.03639837 10.03125,6.50137252 C9.90404662,6.0045628 10.173184,5.49934686 10.6406528,5.32002743 L10.7519608,5.28458333 C11.4894253,5.09576259 12.0052288,4.43125369 12.0052288,3.67 C12.0052288,2.95949656 11.5559067,2.33326857 10.8964111,2.09941104 L10.7519608,2.05541667 C10.216935,1.91842841 9.89426174,1.37365333 10.03125,0.838627481 C10.1682383,0.30360163 10.7130133,-0.0190715928 11.2480392,0.117916667 Z M6.33333333,2 C5.41285875,2 4.66666667,2.74619208 4.66666667,3.66666667 C4.66666667,4.58714125 5.41285875,5.33333333 6.33333333,5.33333333 C7.25380792,5.33333333 8,4.58714125 8,3.66666667 C8,2.74619208 7.25380792,2 6.33333333,2 Z" id="Combined-Shape"></path>
                    </g>
                </g>
            </g>
        </g>
    </g>
</svg>